<?xml version="1.0"?>
<svg xmlns="http://www.w3.org/2000/svg" xmlns:xlink="http://www.w3.org/1999/xlink" xmlns:svgjs="http://svgjs.com/svgjs" version="1.1" width="512" height="512" x="0" y="0" viewBox="0 0 512.00046 512" style="enable-background:new 0 0 512 512" xml:space="preserve" class=""><g><path xmlns="http://www.w3.org/2000/svg" d="m501.761719 328.960938-28.757813 99.242187c-7.179687 24.410156-29.597656 41.164063-55.042968 41.128906-25.351563-4.339843-50.9375-7.191406-76.628907-8.53125-16.007812.375-31.902343 2.84375-47.273437 7.339844-2.671875.839844-5.480469 1.1875-8.277344 1.023437-29.867188-2.21875-56.320312-26.625-56.320312-56.40625-.011719-5.402343 1.277343-10.730468 3.753906-15.53125l.769531-.683593 209.492187-185.855469c6.265626 1.6875 12.089844 4.714844 17.066407 8.875 4.449219 3.503906 8.164062 7.855469 10.921875 12.800781l26.285156 62.121094c5.804688 10.523437 7.246094 22.902344 4.011719 34.476563zm0 0" fill="#ffc61a" data-original="#f85b44" style="" class=""/><path xmlns="http://www.w3.org/2000/svg" d="m460.542969 219.5625v135.425781c.003906 23.148438-13.933594 44.023438-35.316407 52.890625-21.382812 8.871094-46.003906 3.996094-62.390624-12.359375-9.625-11.199219-14.304688-25.824219-12.96875-40.53125v22.867188c0 31.660156-29.441407 57.34375-61.015626 57.34375-15.1875.03125-29.753906-6.023438-40.445312-16.808594-6.304688-6.175781-11.21875-13.625-14.421875-21.847656l209.492187-185.855469c6.265626 1.6875 12.089844 4.714844 17.066407 8.875zm0 0" fill="#dbb900" data-original="#d13d34" style="" class=""/><path xmlns="http://www.w3.org/2000/svg" d="m443.476562 108.714844v223.402344c.003907 23.148437-13.933593 44.023437-35.316406 52.894531-21.382812 8.871093-46.003906 3.992187-62.390625-12.359375-9.625-11.203125-14.304687-25.824219-12.96875-40.535156v22.871093c0 31.65625-29.441406 57.34375-61.015625 57.34375-15.1875.027344-29.753906-6.027343-40.445312-16.8125-11.144532-10.585937-17.621094-25.167969-18.007813-40.53125v-11.4375c.289063 15.050781-5.476562 29.585938-16 40.351563-10.523437 10.761718-24.925781 16.855468-39.976562 16.910156-15.195313.019531-29.777344-5.996094-40.535157-16.726562-10.121093-11.871094-15.3125-27.171876-14.503906-42.753907v-11.433593c-.828125 26.152343-21.808594 47.171874-47.960937 48.042968-12.160157.023438-23.828125-4.796875-32.425781-13.394531-8.597657-8.601563-13.417969-20.269531-13.394532-32.429687v-189.097657c.003906-31.621093 25.636719-57.253906 57.257813-57.257812 9.488281-.785157 18.925781 2.015625 26.453125 7.847656 6.457031 6.445313 10.078125 15.199219 10.070312 24.320313v-22.953126c-.414062-11.679687 4.050782-23 12.324219-31.257812 8.269531-8.253906 19.601563-12.695312 31.28125-12.261719h27.132813c25.261718 0 40.277343 20.480469 40.277343 45.738281l1.195313-42.835937c.003906-25.308594 20.519531-45.820313 45.824218-45.824219h22.871094c25.257813 0 49.578125 17.320313 49.578125 42.664063v34.132812c0-25.257812 16.722657-45.394531 41.984375-45.394531 37.953125.035156 68.703125 30.820312 68.691406 68.777344zm0 0" fill="#ffc61a" data-original="#f85b44" style="" class=""/><path xmlns="http://www.w3.org/2000/svg" d="m443.476562 108.714844v223.402344c.023438 15.191406-6 29.769531-16.746093 40.511718-10.742188 10.746094-25.320313 16.769532-40.511719 16.746094-4.25 0-8.488281-.484375-12.628906-1.449219 26.066406-5.902343 44.566406-29.082031 44.542968-55.808593v-223.402344c-.015624-32.46875-22.699218-60.515625-54.441406-67.328125 3.617188-.96875 7.347656-1.457031 11.09375-1.449219 37.953125.035156 68.703125 30.820312 68.691406 68.777344zm0 0" fill="#dbb900" data-original="#d13d34" style="" class=""/><path xmlns="http://www.w3.org/2000/svg" d="m54.355469 386.476562c16.574219-.273437 32.203125-7.753906 42.8125-20.480468 2.460937 9.074218 7.152343 17.390625 13.65625 24.183594 12.347656 12.324218 29.089843 19.230468 46.539062 19.199218 21.414063.140625 41.460938-10.503906 53.34375-28.324218 3.179688 6.699218 7.398438 12.855468 12.492188 18.246093-1.472657 4.347657-2.230469 8.902344-2.253907 13.492188 1.664063 34.808593 29.28125 62.773437 64.066407 64.878906 3.847656.265625 7.710937-.183594 11.394531-1.324219 14.605469-4.28125 29.710938-6.640625 44.925781-7.015625 25.214844 1.351563 50.332031 4.164063 75.222657 8.414063.464843.078125.9375.121094 1.40625.121094 29.214843-.0625 54.925781-19.289063 63.25-47.292969l28.773437-99.320313c3.808594-13.570312 2.179687-28.089844-4.539063-40.480468l-26.121093-61.730469c-.128907-.292969-.273438-.574219-.433594-.851563-6.082031-10.625-15.546875-18.90625-26.886719-23.519531v-95.957031c.015625-42.671875-34.554687-77.285156-77.226562-77.3125-12.554688-.179688-24.699219 4.460937-33.929688 12.972656-3.976562-27.597656-31.753906-44.375-57.625-44.375h-22.871094c-29.929687.00390625-54.226562 24.199219-54.355468 54.128906v1.578125c-8.855469-8.425781-20.675782-13.027343-32.898438-12.800781h-27.175781c-25.09375-.953125-47 16.84375-51.203125 41.597656-8.667969-5.328125-18.765625-7.867187-28.925781-7.277344-36.320313.042969-65.7500002 29.472657-65.792969 65.792969v189.097657c-.0195312 14.421874 5.699219 28.261718 15.898438 38.460937 10.199218 10.195313 24.035156 15.917969 38.457031 15.898437zm409.464843-150.308593 26.078126 61.644531c.113281.269531.238281.53125.375.785156 4.734374 8.535156 5.921874 18.589844 3.304687 27.992188l-28.75 99.222656c-6.097656 20.496094-24.792969 34.660156-46.175781 34.988281-25.574219-4.410156-51.394532-7.257812-77.320313-8.535156-16.792969.382813-33.464843 2.964844-49.585937 7.679687-1.71875.574219-3.523438.824219-5.332032.734376-25.996093-1.273438-46.867187-21.914063-48.417968-47.898438 0-.40625.117187-.808594.144531-1.21875 10.15625 6.109375 21.792969 9.324219 33.644531 9.300781 28.894532-.300781 54.765625-17.960937 65.570313-44.757812.761719.855469 1.5625 1.707031 2.398437 2.5625 18.828125 18.769531 47.101563 24.363281 71.660156 14.179687 24.558594-10.183594 40.574219-34.144531 40.597657-60.730468v-108.152344c4.820312 3.109375 8.863281 7.285156 11.808593 12.203125zm-446.753906-93.148438c.027344-26.898437 21.828125-48.699219 48.726563-48.726562 7.242187-.75 14.511719 1.132812 20.480469 5.308593 4.875 4.835938 7.609374 11.421876 7.59375 18.285157v1.582031c0 4.710938 3.820312 8.53125 8.53125 8.53125 4.714843 0 8.535156-3.820312 8.535156-8.53125v-24.535156c-.4375-9.414063 3.117187-18.574219 9.785156-25.234375 6.664062-6.660157 15.832031-10.199219 25.242188-9.753907h27.136718c21.933594 0 31.746094 18.691407 31.746094 37.207032v5.246094c0 4.714843 3.820312 8.535156 8.53125 8.535156 4.714844 0 8.535156-3.820313 8.535156-8.535156v-4.972657l1.195313-43.066406c.015625-20.574219 16.675781-37.25 37.246093-37.292969h22.871094c19.710938 0 41.042969 13.046875 41.042969 34.132813v34.132812c0 .078125.042969.136719.042969.214844s-.042969.136719-.042969.214844v8.105469c0 4.710937 3.820313 8.53125 8.535156 8.53125 4.710938 0 8.53125-3.820313 8.53125-8.53125v-8.105469c0-.078125-.042969-.136719-.042969-.214844s.042969-.136719.042969-.214844c0-21.707031 13.757813-36.863281 33.453125-36.863281 33.242188.035156 60.171875 27 60.160156 60.246094v223.402344c-.003906 19.691406-11.855468 37.449218-30.042968 45-18.183594 7.554687-39.128906 3.421874-53.082032-10.472657-7.253906-7.324219-10.488281-17.972656-10.488281-34.527343v-152.917969c0-4.710938-3.820312-8.53125-8.53125-8.53125-4.714843 0-8.535156 3.820312-8.535156 8.53125v175.789062c-1.722656 27.640625-24.785156 49.089844-52.480469 48.808594-12.941406.046875-25.355468-5.117187-34.4375-14.335937-9.503906-9-15.070312-21.390626-15.480468-34.472657v-158.722656c0-4.710937-3.820313-8.53125-8.535157-8.53125-4.710937 0-8.53125 3.820313-8.53125 8.53125v147.285156c.308594 12.792969-4.550781 25.171875-13.480469 34.339844-8.925781 9.167969-21.167968 14.355469-33.964843 14.386719-12.921875.027344-25.320313-5.082032-34.476563-14.199219-8.496094-10.292969-12.765625-23.425781-11.945312-36.746094v-128c0-4.710937-3.820313-8.53125-8.535156-8.53125-4.710938 0-8.53125 3.820313-8.53125 8.53125v116.523438c-.777344 21.5-18.011719 38.753906-39.511719 39.554687-9.894531.019532-19.394531-3.902344-26.390625-10.898437-7-7-10.921875-16.496094-10.898438-26.394531zm0 0" fill="#000000" data-original="#000000" style="" class=""/></g></svg>
